<svg width="39" height="13" viewBox="0 0 39 13" fill="none" xmlns="http://www.w3.org/2000/svg">
<path d="M0.5 5.90049H0V6.90049H0.5V5.90049ZM38 6.40049L38.2864 6.81029L38.8908 6.38787L38.2747 5.98273L38 6.40049ZM33.0685 0.825965L32.894 0.357412L31.9569 0.706459L32.1314 1.17501L33.0685 0.825965ZM32.161 11.5611L31.9216 12.0001L32.7996 12.4788L33.0389 12.0399L32.161 11.5611ZM0.5 6.90049H38V5.90049H0.5V6.90049ZM32.1314 1.17501C32.3907 1.87107 32.8884 2.56865 33.4539 3.20833C34.0244 3.85375 34.6905 4.46947 35.3193 5.00063C35.9493 5.53274 36.5492 5.98597 36.9912 6.30603C37.2125 6.46624 37.3948 6.5935 37.5223 6.68106C37.5861 6.72485 37.6362 6.75874 37.6707 6.78188C37.6879 6.79345 37.7012 6.80233 37.7104 6.80843C37.715 6.81148 37.7186 6.81383 37.721 6.81547C37.7223 6.81629 37.7232 6.81693 37.7239 6.81739C37.7243 6.81762 37.7246 6.81781 37.7248 6.81795C37.7249 6.81802 37.725 6.8181 37.7251 6.81813C37.7252 6.81819 37.7252 6.81824 38 6.40049C38.2747 5.98273 38.2748 5.98276 38.2748 5.98278C38.2748 5.98277 38.2748 5.98277 38.2747 5.98275C38.2747 5.98272 38.2746 5.98263 38.2744 5.98251C38.274 5.98225 38.2733 5.98182 38.2724 5.98121C38.2706 5.97999 38.2677 5.97807 38.2637 5.97546C38.2559 5.97024 38.2439 5.96225 38.228 5.95161C38.1963 5.93031 38.1491 5.8984 38.0884 5.8567C37.9669 5.77328 37.7915 5.65082 37.5777 5.49606C37.1497 5.18619 36.5706 4.7485 35.9646 4.23666C35.3575 3.72387 34.7305 3.14262 34.2031 2.546C33.6706 1.94364 33.2653 1.35411 33.0685 0.825965L32.1314 1.17501ZM38 6.40049C37.7135 5.99068 37.7134 5.99073 37.7134 5.99079C37.7133 5.99082 37.7132 5.99089 37.7131 5.99096C37.7129 5.9911 37.7127 5.99128 37.7124 5.9915C37.7117 5.99194 37.7109 5.99255 37.7097 5.99333C37.7075 5.99488 37.7044 5.9971 37.7003 5.99998C37.6921 6.00574 37.6803 6.01413 37.6649 6.02507C37.6342 6.04693 37.5896 6.07897 37.5325 6.12047C37.4185 6.20345 37.2548 6.32435 37.0543 6.47744C36.6535 6.78339 36.104 7.21911 35.5084 7.73875C34.3304 8.76662 32.9223 10.1652 32.161 11.5611L33.0389 12.0399C33.7101 10.8092 35.002 9.50774 36.1659 8.49226C36.7412 7.99022 37.2731 7.56844 37.6611 7.2723C37.8549 7.12434 38.0123 7.00805 38.1209 6.9291C38.1751 6.88964 38.2171 6.85953 38.2452 6.83949C38.2593 6.82946 38.2699 6.82196 38.2768 6.81707C38.2803 6.81462 38.2828 6.81282 38.2844 6.81169C38.2853 6.81112 38.2858 6.81072 38.2862 6.81049C38.2863 6.81037 38.2864 6.8103 38.2865 6.81027C38.2865 6.81025 38.2865 6.81026 38.2865 6.81025C38.2865 6.81027 38.2864 6.81029 38 6.40049Z" fill="#E58411"/>
</svg>
